<svg width="89" height="66" viewBox="0 0 89 66" fill="none" xmlns="http://www.w3.org/2000/svg">
<path d="M1.47746 5.23423L1.47744 5.23423C0.466107 4.60716 0.206746 3.35435 0.855557 2.42884L0.855572 2.42882C1.51809 1.48365 2.89407 1.20673 3.92278 1.84465L3.92279 1.84466C7.81524 4.25832 10.9695 7.43939 13.2236 11.098L13.2509 11.1423L13.2867 11.18C13.8164 11.7382 17.9401 15.846 24.7034 15.846H55.7924V15.8461L55.8012 15.8459C63.9906 15.7019 70.3279 23.4277 68.2152 30.7634L68.2151 30.7633L68.2125 30.7729L64.6337 44.1879C62.8862 50.7383 56.6377 55.3438 49.405 55.3438H28.483C19.7978 55.3438 12.7843 48.7051 12.7843 40.6095V24.9944C12.7843 17.0034 8.54839 9.61884 1.47746 5.23423ZM17.1831 18.5234L16.304 18.1832L16.5154 19.1018C16.9559 21.0154 17.1839 22.9886 17.1839 24.9944V40.6095C17.1839 46.5143 22.2816 51.2657 28.483 51.2657H49.405C54.5728 51.2657 59.0924 47.971 60.3626 43.2099L63.9402 29.7996C65.3583 24.8633 61.115 19.8334 55.788 19.9241H24.7033C21.8063 19.9241 19.2859 19.3369 17.1831 18.5234ZM21.603 61.0356C22.0623 60.5512 22.7706 60.1918 23.7676 60.1524C25.3802 60.1571 26.6331 61.3807 26.6331 62.8262C26.6331 64.2717 25.3802 65.4953 23.7676 65.5C22.7716 65.461 22.0635 65.1019 21.604 64.6176C21.1384 64.1269 20.9017 63.48 20.9014 62.8267C20.9012 62.1733 21.1376 61.5265 21.603 61.0356ZM48.4658 61.0356C48.9252 60.5512 49.6335 60.1918 50.6305 60.1524C52.243 60.1571 53.496 61.3807 53.496 62.8262C53.496 64.2717 52.243 65.4953 50.6304 65.5C49.6345 65.461 48.9263 65.1019 48.4668 64.6176C48.0013 64.1269 47.7645 63.48 47.7643 62.8267C47.7641 62.1733 48.0004 61.5265 48.4658 61.0356ZM55.7924 26.0022C57.0367 26.0022 57.9922 26.9435 57.9922 28.0413C57.9922 29.139 57.0367 30.0803 55.7924 30.0803H25.7928C25.0203 30.0496 24.4799 29.772 24.1322 29.4055C23.7785 29.0327 23.5978 28.5404 23.5977 28.0415C23.5975 27.5427 23.778 27.0504 24.1315 26.6776C24.4791 26.311 25.0197 26.0331 25.7929 26.0022H55.7924Z" fill="#3D3D3D" stroke="#3D3D3D"/>
<path d="M69.1829 38C79.2422 38 87.3659 29.7 87.3659 19.5C87.3659 9.30005 79.2422 1 69.1829 1C59.1236 1 51 9.30005 51 19.5C51 29.7 59.1236 38 69.1829 38Z" fill="#A34646" stroke="white" stroke-width="2"/>
<path d="M64.0376 12.2433H64.9256V28.0833H62.3816V15.2433L59.1656 16.2753L58.5416 14.0433L64.0376 12.2433ZM73.0771 25.8753H79.7731V28.0833H68.4211V27.5073L74.0611 21.4353C74.9731 20.4753 75.6211 19.6753 76.0051 19.0353C76.3891 18.3953 76.5811 17.7473 76.5811 17.0913C76.5811 16.2753 76.3411 15.6113 75.8611 15.0993C75.3811 14.5713 74.7411 14.3073 73.9411 14.3073C73.1411 14.3073 72.4931 14.5793 71.9971 15.1233C71.5011 15.6673 71.2531 16.3553 71.2531 17.1873C71.2531 17.4753 71.2931 17.8833 71.3731 18.4113H68.8051C68.6931 18.0113 68.6371 17.5553 68.6371 17.0433C68.6371 15.6833 69.1331 14.4993 70.1251 13.4913C71.1171 12.4833 72.3971 11.9793 73.9651 11.9793C75.4691 11.9793 76.7171 12.4513 77.7091 13.3953C78.7171 14.3393 79.2211 15.5073 79.2211 16.8993C79.2211 17.9873 78.9331 18.9713 78.3571 19.8513C77.8451 20.6673 77.0131 21.6913 75.8611 22.9233L73.0771 25.8753Z" fill="white"/>
</svg>
