<svg width="30" height="30" viewBox="0 0 30 30" fill="none" xmlns="http://www.w3.org/2000/svg">
<g clip-path="url(#clip0_50750_349)">
<path d="M0.300003 0.3V4.5H4.5V0.3H0.300003ZM8.7 0.3V4.5H12.9V0.3H8.7ZM17.1 0.3V4.5H21.3V0.3H17.1ZM25.5 0.3V4.5H29.7V0.3H25.5ZM0.300003 8.7V12.9H4.5V8.7H0.300003ZM8.7 8.7V12.9H12.9V8.7H8.7ZM17.1 8.7V12.9H21.3V8.7H17.1ZM25.5 8.7V12.9H29.7V8.7H25.5ZM0.300003 17.1V21.3H4.5V17.1H0.300003ZM8.7 17.1V21.3H12.9V17.1H8.7ZM17.1 17.1V21.3H21.3V17.1H17.1ZM25.5 17.1V21.3H29.7V17.1H25.5ZM0.300003 25.5V29.7H4.5V25.5H0.300003ZM8.7 25.5V29.7H12.9V25.5H8.7ZM17.1 25.5V29.7H21.3V25.5H17.1ZM25.5 25.5V29.7H29.7V25.5H25.5Z" fill="#A34646"/>
</g>
<defs>
<clipPath id="clip0_50750_349">
<rect width="30" height="30" fill="white"/>
</clipPath>
</defs>
</svg>
