<svg width="70" height="65" viewBox="0 0 70 65" fill="none" xmlns="http://www.w3.org/2000/svg">
<path d="M1.47746 4.23423L1.47744 4.23423C0.466107 3.60716 0.206746 2.35435 0.855557 1.42884L0.855572 1.42882C1.51809 0.483653 2.89407 0.206735 3.92278 0.844652L3.92279 0.844657C7.81524 3.25832 10.9695 6.43939 13.2236 10.098L13.2509 10.1423L13.2867 10.18C13.8164 10.7382 17.9401 14.846 24.7034 14.846H55.7924V14.8461L55.8012 14.8459C63.9906 14.7019 70.3279 22.4277 68.2152 29.7634L68.2151 29.7633L68.2125 29.7729L64.6337 43.1879C62.8862 49.7383 56.6377 54.3438 49.405 54.3438H28.483C19.7978 54.3438 12.7843 47.7051 12.7843 39.6095V23.9944C12.7843 16.0034 8.54839 8.61884 1.47746 4.23423ZM17.1831 17.5234L16.304 17.1832L16.5154 18.1018C16.9559 20.0154 17.1839 21.9886 17.1839 23.9944V39.6095C17.1839 45.5143 22.2816 50.2657 28.483 50.2657H49.405C54.5728 50.2657 59.0924 46.971 60.3626 42.2099L63.9402 28.7996C65.3583 23.8633 61.115 18.8334 55.788 18.9241H24.7033C21.8063 18.9241 19.2859 18.3369 17.1831 17.5234ZM21.603 60.0356C22.0623 59.5512 22.7706 59.1918 23.7676 59.1524C25.3802 59.1571 26.6331 60.3807 26.6331 61.8262C26.6331 63.2717 25.3802 64.4953 23.7676 64.5C22.7716 64.461 22.0635 64.1019 21.604 63.6176C21.1384 63.1269 20.9017 62.48 20.9014 61.8267C20.9012 61.1733 21.1376 60.5265 21.603 60.0356ZM48.4658 60.0356C48.9252 59.5512 49.6335 59.1918 50.6305 59.1524C52.243 59.1571 53.496 60.3807 53.496 61.8262C53.496 63.2717 52.243 64.4953 50.6304 64.5C49.6345 64.461 48.9263 64.1019 48.4668 63.6176C48.0013 63.1269 47.7645 62.48 47.7643 61.8267C47.7641 61.1733 48.0004 60.5265 48.4658 60.0356ZM55.7924 25.0022C57.0367 25.0022 57.9922 25.9435 57.9922 27.0413C57.9922 28.139 57.0367 29.0803 55.7924 29.0803H25.7928C25.0203 29.0496 24.4799 28.772 24.1322 28.4055C23.7785 28.0327 23.5978 27.5404 23.5977 27.0415C23.5975 26.5427 23.778 26.0504 24.1315 25.6776C24.4791 25.311 25.0197 25.0331 25.7929 25.0022H55.7924Z" fill="#3D3D3D" stroke="#3D3D3D"/>
</svg>
