<svg width="25" height="23" viewBox="0 0 25 23" fill="none" xmlns="http://www.w3.org/2000/svg">
<path d="M18.2149 18.2386C13.2187 21.867 6.2347 20.8629 2.53541 16.7015C-1.03506 12.6838 -0.811761 6.88778 3.06165 3.21947C7.06388 -0.57053 13.3561 -1.07648 17.9174 2.03251C19.5515 3.14617 20.7719 4.56297 21.5667 6.27794C22.3662 8.00286 22.609 9.79752 22.3319 11.6484C22.0555 13.4907 21.2489 15.1324 19.9365 16.6645C20.0426 16.7278 20.1559 16.7734 20.2371 16.8474C21.6799 18.1567 23.1173 19.4711 24.5602 20.7804C24.9022 21.0907 25.0724 21.4522 24.9709 21.8877C24.7694 22.7544 23.6373 23.0888 22.9112 22.4939C22.5708 22.2157 22.2577 21.909 21.9345 21.6144C20.7492 20.5349 19.5648 19.4547 18.3796 18.3752C18.3304 18.3325 18.2789 18.2926 18.2149 18.2386ZM19.9497 10.2423C19.9622 5.84314 16.0654 2.28656 11.2277 2.28015C6.40335 2.27375 2.50964 5.80187 2.48856 10.1982C2.46748 14.608 6.3565 18.1745 11.209 18.1951C16.0139 18.2158 19.9372 14.6457 19.9497 10.2423Z" fill="#257143"/>
</svg>
